<?xml version="1.0" encoding="UTF-8" standalone="no"?>
<svg width="212px" height="49px" viewBox="0 0 212 49" version="1.1" xmlns="http://www.w3.org/2000/svg" xmlns:xlink="http://www.w3.org/1999/xlink">
    <!-- Generator: sketchtool 3.8.1 (29687) - http://www.bohemiancoding.com/sketch -->
    <title>2BA08022-8070-43E8-8C92-56694CC79811</title>
    <desc>Created with sketchtool.</desc>
    <defs>
        <polygon id="path-1" points="39.887177 0.0893796296 0.0445432099 0.0893796296 0.0445432099 10.5322324 39.887177 10.5322324 39.887177 0.0893796296"></polygon>
        <polygon id="path-3" points="0 48.9106204 54.8368107 48.9106204 54.8368107 0.226851852 0 0.226851852"></polygon>
    </defs>
    <g id="10_Desktop_AIIB_Homepage_160425" stroke="none" stroke-width="1" fill="none" fill-rule="evenodd">
        <g id="10_AIIB_Homepage" transform="translate(-42.000000, -15.000000)">
            <g id="Header_white">
                <g id="Navigation">
                    <g id="Logo">
                        <g id="Logo_red" transform="translate(42.000000, 15.000000)">
                            <g id="Logo">
                                <g>
                                    <g id="Group-3" transform="translate(7.921811, 0.137472)">
                                        <mask id="mask-2" fill="white">
                                            <use xlink:href="#path-1"></use>
                                        </mask>
                                        <g id="Clip-2"></g>
                                        <path d="M7.05625103,10.5322324 C10.4433909,7.37014444 14.9812305,5.4292 19.9654074,5.4292 C24.949358,5.4292 29.4878765,7.37014444 32.8750165,10.5322324 L39.887177,10.5322324 C35.4935144,4.22643148 28.2047695,0.0893342593 19.9654074,0.0893342593 C11.727177,0.0893342593 4.43752675,4.22643148 0.0445432099,10.5322324 L7.05625103,10.5322324 Z" id="Fill-1" fill="#860C14" mask="url(#mask-2)"></path>
                                    </g>
                                    <path d="M40.7968951,38.4674727 C37.4093025,41.6293338 32.8710103,43.5707319 27.887286,43.5707319 C22.9028827,43.5707319 18.3657222,41.6293338 14.9785823,38.4674727 L7.96687449,38.4674727 C12.359179,44.7728199 19.6492819,48.9105977 27.887286,48.9105977 C36.1264218,48.9105977 43.4151667,44.7728199 47.8088292,38.4674727 L40.7968951,38.4674727 Z" id="Fill-4" fill="#860C14"></path>
                                    <path d="M7.15482099,27.1647606 L12.4945741,27.1647606 L9.86113786,18.9422884 L7.15482099,27.1647606 Z M7.44226955,14.1650153 L12.3712202,14.1650153 L19.7475576,35.0621542 L15.0236687,35.0621542 L13.6477634,30.7655801 L5.96971811,30.7655801 L4.55714609,35.0621542 L6.79012346e-05,35.0621542 L7.44226955,14.1650153 Z" id="Fill-6" fill="#860C14"></path>
                                    <mask id="mask-4" fill="white">
                                        <use xlink:href="#path-3"></use>
                                    </mask>
                                    <g id="Clip-9"></g>
                                    <polygon id="Fill-8" fill="#860C14" mask="url(#mask-4)" points="21.7218313 35.0619954 26.0496296 35.0619954 26.0496296 14.1650833 21.7218313 14.1650833"></polygon>
                                    <polygon id="Fill-10" fill="#860C14" mask="url(#mask-4)" points="29.7703909 35.0619954 34.098642 35.0619954 34.098642 14.1650833 29.7703909 14.1650833"></polygon>
                                    <path d="M41.8945412,25.8612472 L41.8945412,31.4325019 L46.9561255,31.4325019 C47.8596646,31.4325019 48.5640267,31.309775 49.0678539,31.0634139 C49.9813519,30.6101639 50.4374218,29.7404139 50.4374218,28.4559787 C50.4374218,27.3689046 49.9953848,26.6216546 49.1099527,26.215363 C48.615179,25.9876037 47.9212284,25.8696407 47.0265165,25.8612472 L41.8945412,25.8612472 Z M41.8945412,17.7941685 L41.8945412,22.4015296 L46.9620103,22.4015296 C47.8669074,22.4015296 48.6025041,22.2288954 49.1660844,21.8843074 C49.73057,21.5394926 50.0134918,20.9274463 50.0134918,20.0481685 C50.0134918,19.0742935 49.6404877,18.4318491 48.8938004,18.1199278 C48.249644,17.9026037 47.4287181,17.7941685 46.4296646,17.7941685 L41.8945412,17.7941685 Z M53.2154877,16.3910898 C53.8528539,17.278988 54.1719897,18.3426963 54.1719897,19.5801731 C54.1719897,20.8557611 53.8505905,21.881812 53.2062078,22.6562843 C52.8463313,23.0918398 52.3171543,23.4888306 51.6155082,23.8474833 C52.6799733,24.2351731 53.4832449,24.8497148 54.0244177,25.691562 C54.5667222,26.5325019 54.8369691,27.5524278 54.8369691,28.7522472 C54.8369691,29.9919926 54.5271132,31.1019787 53.9080802,32.0851546 C53.5151584,32.7369 53.0226481,33.2840667 52.4316811,33.7289231 C51.766249,34.2393398 50.9819897,34.5893722 50.0766399,34.7776593 C49.1708374,34.9677611 48.1892119,35.0621315 47.1299527,35.0621315 L37.7360432,35.0621315 L37.7360432,14.1649926 L47.8123601,14.1649926 C50.3539033,14.2024231 52.155323,14.9451361 53.2154877,16.3910898 L53.2154877,16.3910898 Z" id="Fill-11" fill="#860C14" mask="url(#mask-4)"></path>
                                </g>
                                <path d="M76.0024414,19.0083008 L78.0112305,19.0083008 L77.0229492,15.8930664 L76.0024414,19.0083008 Z M76.1044922,14.0830078 L77.9736328,14.0830078 L80.7773438,22 L78.9833984,22 L78.4731445,20.3725586 L75.5566406,20.3725586 L75.0087891,22 L73.2792969,22 L76.1044922,14.0830078 Z M82.9794922,19.5561523 C83.0296226,19.9178078 83.1280917,20.1881501 83.2749023,20.3671875 C83.5434584,20.6930355 84.0035775,20.855957 84.6552734,20.855957 C85.0455749,20.855957 85.3624662,20.8129887 85.605957,20.7270508 C86.0678734,20.5623364 86.2988281,20.2561871 86.2988281,19.8085938 C86.2988281,19.5471992 86.1842459,19.34489 85.9550781,19.2016602 C85.7259103,19.062011 85.3660506,18.9384771 84.8754883,18.8310547 L84.0375977,18.6430664 C83.2140258,18.4568676 82.6446956,18.2545584 82.3295898,18.0361328 C81.7960585,17.6708966 81.5292969,17.099776 81.5292969,16.3227539 C81.5292969,15.613766 81.7871068,15.0247419 82.3027344,14.5556641 C82.818362,14.0865862 83.5756786,13.8520508 84.574707,13.8520508 C85.4090211,13.8520508 86.1206839,14.0731586 86.7097168,14.5153809 C87.2987497,14.9576031 87.6075845,15.5994424 87.6362305,16.440918 L86.0463867,16.440918 C86.0177407,15.9646786 85.8100605,15.6263031 85.4233398,15.4257812 C85.1655261,15.2932936 84.845054,15.2270508 84.4619141,15.2270508 C84.0358052,15.2270508 83.6956393,15.3129874 83.4414062,15.4848633 C83.1871732,15.6567391 83.0600586,15.8966456 83.0600586,16.2045898 C83.0600586,16.4874689 83.1853829,16.6987298 83.4360352,16.8383789 C83.5971688,16.9314783 83.9409153,17.0406895 84.4672852,17.1660156 L85.831543,17.4936523 C86.4295277,17.6368822 86.8806951,17.8284493 87.1850586,18.0683594 C87.6577172,18.4407571 87.894043,18.9796514 87.894043,19.6850586 C87.894043,20.4083695 87.6174344,21.0090308 87.064209,21.4870605 C86.5109836,21.9650903 85.7294972,22.2041016 84.7197266,22.2041016 C83.6884714,22.2041016 82.8774444,21.968671 82.2866211,21.4978027 C81.6957978,21.0269345 81.4003906,20.3797242 81.4003906,19.5561523 L82.9794922,19.5561523 Z M90.6333008,22 L88.9897461,22 L88.9897461,14.0830078 L90.6333008,14.0830078 L90.6333008,22 Z M94.3393555,19.0083008 L96.3481445,19.0083008 L95.3598633,15.8930664 L94.3393555,19.0083008 Z M94.4414062,14.0830078 L96.3105469,14.0830078 L99.1142578,22 L97.3203125,22 L96.8100586,20.3725586 L93.8935547,20.3725586 L93.3457031,22 L91.6162109,22 L94.4414062,14.0830078 Z M100.091797,14.0830078 L101.82666,14.0830078 L104.979492,19.6098633 L104.979492,14.0830078 L106.520996,14.0830078 L106.520996,22 L104.866699,22 L101.633301,16.3764648 L101.633301,22 L100.091797,22 L100.091797,14.0830078 Z M112.633301,22 L110.989746,22 L110.989746,14.0830078 L112.633301,14.0830078 L112.633301,22 Z M114.147949,14.0830078 L115.882812,14.0830078 L119.035645,19.6098633 L119.035645,14.0830078 L120.577148,14.0830078 L120.577148,22 L118.922852,22 L115.689453,16.3764648 L115.689453,22 L114.147949,22 L114.147949,14.0830078 Z M122.118652,14.09375 L127.731445,14.09375 L127.731445,15.4848633 L123.762207,15.4848633 L123.762207,17.3056641 L127.237305,17.3056641 L127.237305,18.6806641 L123.762207,18.6806641 L123.762207,22 L122.118652,22 L122.118652,14.09375 Z M130.492188,15.4580078 L130.492188,17.5849609 L132.366699,17.5849609 C132.739097,17.5849609 133.018391,17.5419926 133.20459,17.4560547 C133.534019,17.3056633 133.69873,17.0084658 133.69873,16.5644531 C133.69873,16.084633 133.53939,15.7623706 133.220703,15.5976562 C133.041666,15.5045568 132.773114,15.4580078 132.415039,15.4580078 L130.492188,15.4580078 Z M134.039795,14.2871094 C134.338787,14.4124355 134.592121,14.5968412 134.799805,14.840332 C134.971681,15.0408539 135.107747,15.2628569 135.208008,15.5063477 C135.308269,15.7498385 135.358398,16.0273422 135.358398,16.3388672 C135.358398,16.7148456 135.26351,17.0845522 135.07373,17.447998 C134.883951,17.8114439 134.57064,18.0683586 134.133789,18.21875 C134.499025,18.3655606 134.75773,18.574136 134.909912,18.8444824 C135.062094,19.1148288 135.138184,19.5275037 135.138184,20.0825195 L135.138184,20.6142578 C135.138184,20.9759133 135.152506,21.2211908 135.181152,21.3500977 C135.224121,21.5542002 135.324381,21.7045894 135.481934,21.8012695 L135.481934,22 L133.661133,22 C133.611002,21.8245434 133.575195,21.683106 133.553711,21.5756836 C133.510742,21.3536773 133.487467,21.1263032 133.483887,20.8935547 L133.473145,20.1577148 C133.465983,19.6528295 133.37378,19.3162443 133.196533,19.1479492 C133.019286,18.9796541 132.687177,18.8955078 132.200195,18.8955078 L130.492188,18.8955078 L130.492188,22 L128.875488,22 L128.875488,14.0830078 L132.758789,14.0830078 C133.313805,14.0937501 133.740803,14.1617832 134.039795,14.2871094 L134.039795,14.2871094 Z M138.946289,19.0083008 L140.955078,19.0083008 L139.966797,15.8930664 L138.946289,19.0083008 Z M139.04834,14.0830078 L140.91748,14.0830078 L143.721191,22 L141.927246,22 L141.416992,20.3725586 L138.500488,20.3725586 L137.952637,22 L136.223145,22 L139.04834,14.0830078 Z M145.92334,19.5561523 C145.97347,19.9178078 146.071939,20.1881501 146.21875,20.3671875 C146.487306,20.6930355 146.947425,20.855957 147.599121,20.855957 C147.989423,20.855957 148.306314,20.8129887 148.549805,20.7270508 C149.011721,20.5623364 149.242676,20.2561871 149.242676,19.8085938 C149.242676,19.5471992 149.128094,19.34489 148.898926,19.2016602 C148.669758,19.062011 148.309898,18.9384771 147.819336,18.8310547 L146.981445,18.6430664 C146.157873,18.4568676 145.588543,18.2545584 145.273438,18.0361328 C144.739906,17.6708966 144.473145,17.099776 144.473145,16.3227539 C144.473145,15.613766 144.730954,15.0247419 145.246582,14.5556641 C145.76221,14.0865862 146.519526,13.8520508 147.518555,13.8520508 C148.352869,13.8520508 149.064532,14.0731586 149.653564,14.5153809 C150.242597,14.9576031 150.551432,15.5994424 150.580078,16.440918 L148.990234,16.440918 C148.961588,15.9646786 148.753908,15.6263031 148.367188,15.4257812 C148.109374,15.2932936 147.788902,15.2270508 147.405762,15.2270508 C146.979653,15.2270508 146.639487,15.3129874 146.385254,15.4848633 C146.131021,15.6567391 146.003906,15.8966456 146.003906,16.2045898 C146.003906,16.4874689 146.129231,16.6987298 146.379883,16.8383789 C146.541016,16.9314783 146.884763,17.0406895 147.411133,17.1660156 L148.775391,17.4936523 C149.373375,17.6368822 149.824543,17.8284493 150.128906,18.0683594 C150.601565,18.4407571 150.837891,18.9796514 150.837891,19.6850586 C150.837891,20.4083695 150.561282,21.0090308 150.008057,21.4870605 C149.454831,21.9650903 148.673345,22.2041016 147.663574,22.2041016 C146.632319,22.2041016 145.821292,21.968671 145.230469,21.4978027 C144.639645,21.0269345 144.344238,20.3797242 144.344238,19.5561523 L145.92334,19.5561523 Z M157.814941,14.0830078 L157.814941,15.4848633 L155.446289,15.4848633 L155.446289,22 L153.78125,22 L153.78125,15.4848633 L151.401855,15.4848633 L151.401855,14.0830078 L157.814941,14.0830078 Z M160.436035,15.4580078 L160.436035,17.5849609 L162.310547,17.5849609 C162.682945,17.5849609 162.962239,17.5419926 163.148438,17.4560547 C163.477866,17.3056633 163.642578,17.0084658 163.642578,16.5644531 C163.642578,16.084633 163.483237,15.7623706 163.164551,15.5976562 C162.985513,15.5045568 162.716961,15.4580078 162.358887,15.4580078 L160.436035,15.4580078 Z M163.983643,14.2871094 C164.282635,14.4124355 164.535969,14.5968412 164.743652,14.840332 C164.915528,15.0408539 165.051595,15.2628569 165.151855,15.5063477 C165.252116,15.7498385 165.302246,16.0273422 165.302246,16.3388672 C165.302246,16.7148456 165.207358,17.0845522 165.017578,17.447998 C164.827799,17.8114439 164.514488,18.0683586 164.077637,18.21875 C164.442873,18.3655606 164.701578,18.574136 164.85376,18.8444824 C165.005942,19.1148288 165.082031,19.5275037 165.082031,20.0825195 L165.082031,20.6142578 C165.082031,20.9759133 165.096354,21.2211908 165.125,21.3500977 C165.167969,21.5542002 165.268228,21.7045894 165.425781,21.8012695 L165.425781,22 L163.60498,22 C163.55485,21.8245434 163.519043,21.683106 163.497559,21.5756836 C163.45459,21.3536773 163.431315,21.1263032 163.427734,20.8935547 L163.416992,20.1577148 C163.409831,19.6528295 163.317628,19.3162443 163.140381,19.1479492 C162.963134,18.9796541 162.631025,18.8955078 162.144043,18.8955078 L160.436035,18.8955078 L160.436035,22 L158.819336,22 L158.819336,14.0830078 L162.702637,14.0830078 C163.257653,14.0937501 163.68465,14.1617832 163.983643,14.2871094 L163.983643,14.2871094 Z M166.725586,14.0830078 L168.406738,14.0830078 L168.406738,18.9492188 C168.406738,19.4934923 168.471191,19.8909493 168.600098,20.1416016 C168.800619,20.5856142 169.237464,20.8076172 169.910645,20.8076172 C170.580244,20.8076172 171.015298,20.5856142 171.21582,20.1416016 C171.344727,19.8909493 171.40918,19.4934923 171.40918,18.9492188 L171.40918,14.0830078 L173.090332,14.0830078 L173.090332,18.9492188 C173.090332,19.7906943 172.959637,20.4459612 172.698242,20.9150391 C172.211261,21.7744184 171.282071,22.2041016 169.910645,22.2041016 C168.539218,22.2041016 167.608238,21.7744184 167.117676,20.9150391 C166.856281,20.4459612 166.725586,19.7906943 166.725586,18.9492188 L166.725586,14.0830078 Z M175.4375,14.9101562 C176.082034,14.2584603 176.902013,13.9326172 177.897461,13.9326172 C179.229499,13.9326172 180.203447,14.3694618 180.819336,15.2431641 C181.159507,15.7337264 181.342122,16.2260717 181.367188,16.7202148 L179.712891,16.7202148 C179.605468,16.3406557 179.467612,16.0542002 179.299316,15.8608398 C178.998534,15.5170881 178.552737,15.3452148 177.961914,15.3452148 C177.360349,15.3452148 176.885907,15.5878068 176.538574,16.072998 C176.191242,16.5581893 176.017578,17.2447872 176.017578,18.1328125 C176.017578,19.0208378 176.201089,19.6859516 176.568115,20.1281738 C176.935142,20.5703961 177.401527,20.7915039 177.967285,20.7915039 C178.547366,20.7915039 178.989582,20.6017272 179.293945,20.222168 C179.46224,20.0180654 179.601887,19.7119161 179.712891,19.3037109 L181.351074,19.3037109 C181.207844,20.166671 180.841718,20.8684869 180.252686,21.4091797 C179.663653,21.9498725 178.909022,22.2202148 177.98877,22.2202148 C176.850092,22.2202148 175.954919,21.8549841 175.303223,21.1245117 C174.651527,20.3904586 174.325684,19.3842837 174.325684,18.105957 C174.325684,16.7237887 174.696285,15.6585324 175.4375,14.9101562 L175.4375,14.9101562 Z M188.365723,14.0830078 L188.365723,15.4848633 L185.99707,15.4848633 L185.99707,22 L184.332031,22 L184.332031,15.4848633 L181.952637,15.4848633 L181.952637,14.0830078 L188.365723,14.0830078 Z M189.33252,14.0830078 L191.013672,14.0830078 L191.013672,18.9492188 C191.013672,19.4934923 191.078124,19.8909493 191.207031,20.1416016 C191.407553,20.5856142 191.844398,20.8076172 192.517578,20.8076172 C193.187178,20.8076172 193.622232,20.5856142 193.822754,20.1416016 C193.951661,19.8909493 194.016113,19.4934923 194.016113,18.9492188 L194.016113,14.0830078 L195.697266,14.0830078 L195.697266,18.9492188 C195.697266,19.7906943 195.56657,20.4459612 195.305176,20.9150391 C194.818194,21.7744184 193.889004,22.2041016 192.517578,22.2041016 C191.146152,22.2041016 190.215172,21.7744184 189.724609,20.9150391 C189.463215,20.4459612 189.33252,19.7906943 189.33252,18.9492188 L189.33252,14.0830078 Z M198.930664,15.4580078 L198.930664,17.5849609 L200.805176,17.5849609 C201.177573,17.5849609 201.456868,17.5419926 201.643066,17.4560547 C201.972495,17.3056633 202.137207,17.0084658 202.137207,16.5644531 C202.137207,16.084633 201.977866,15.7623706 201.65918,15.5976562 C201.480142,15.5045568 201.21159,15.4580078 200.853516,15.4580078 L198.930664,15.4580078 Z M202.478271,14.2871094 C202.777264,14.4124355 203.030598,14.5968412 203.238281,14.840332 C203.410157,15.0408539 203.546223,15.2628569 203.646484,15.5063477 C203.746745,15.7498385 203.796875,16.0273422 203.796875,16.3388672 C203.796875,16.7148456 203.701987,17.0845522 203.512207,17.447998 C203.322427,17.8114439 203.009117,18.0683586 202.572266,18.21875 C202.937502,18.3655606 203.196207,18.574136 203.348389,18.8444824 C203.50057,19.1148288 203.57666,19.5275037 203.57666,20.0825195 L203.57666,20.6142578 C203.57666,20.9759133 203.590983,21.2211908 203.619629,21.3500977 C203.662598,21.5542002 203.762857,21.7045894 203.92041,21.8012695 L203.92041,22 L202.099609,22 C202.049479,21.8245434 202.013672,21.683106 201.992188,21.5756836 C201.949219,21.3536773 201.925944,21.1263032 201.922363,20.8935547 L201.911621,20.1577148 C201.90446,19.6528295 201.812257,19.3162443 201.63501,19.1479492 C201.457763,18.9796541 201.125653,18.8955078 200.638672,18.8955078 L198.930664,18.8955078 L198.930664,22 L197.313965,22 L197.313965,14.0830078 L201.197266,14.0830078 C201.752281,14.0937501 202.179279,14.1617832 202.478271,14.2871094 L202.478271,14.2871094 Z M211.074707,15.4848633 L206.885254,15.4848633 L206.885254,17.1660156 L210.730957,17.1660156 L210.730957,18.5410156 L206.885254,18.5410156 L206.885254,20.5766602 L211.268066,20.5766602 L211.268066,22 L205.268555,22 L205.268555,14.0830078 L211.074707,14.0830078 L211.074707,15.4848633 Z M75.3525391,35 L73.7089844,35 L73.7089844,27.0830078 L75.3525391,27.0830078 L75.3525391,35 Z M76.8671875,27.0830078 L78.6020508,27.0830078 L81.7548828,32.6098633 L81.7548828,27.0830078 L83.2963867,27.0830078 L83.2963867,35 L81.6420898,35 L78.4086914,29.3764648 L78.4086914,35 L76.8671875,35 L76.8671875,27.0830078 Z M89.4731445,27.0830078 L91.1918945,27.0830078 L88.4902344,35 L86.9272461,35 L84.2524414,27.0830078 L86.0195312,27.0830078 L87.7382812,33.0932617 L89.4731445,27.0830078 Z M98.0292969,28.4848633 L93.8398438,28.4848633 L93.8398438,30.1660156 L97.6855469,30.1660156 L97.6855469,31.5410156 L93.8398438,31.5410156 L93.8398438,33.5766602 L98.2226562,33.5766602 L98.2226562,35 L92.2231445,35 L92.2231445,27.0830078 L98.0292969,27.0830078 L98.0292969,28.4848633 Z M100.709473,32.5561523 C100.759603,32.9178078 100.858072,33.1881501 101.004883,33.3671875 C101.273439,33.6930355 101.733558,33.855957 102.385254,33.855957 C102.775555,33.855957 103.092447,33.8129887 103.335938,33.7270508 C103.797854,33.5623364 104.028809,33.2561871 104.028809,32.8085938 C104.028809,32.5471992 103.914226,32.34489 103.685059,32.2016602 C103.455891,32.062011 103.096031,31.9384771 102.605469,31.8310547 L101.767578,31.6430664 C100.944006,31.4568676 100.374676,31.2545584 100.05957,31.0361328 C99.526039,30.6708966 99.2592773,30.099776 99.2592773,29.3227539 C99.2592773,28.613766 99.5170873,28.0247419 100.032715,27.5556641 C100.548342,27.0865862 101.305659,26.8520508 102.304688,26.8520508 C103.139002,26.8520508 103.850664,27.0731586 104.439697,27.5153809 C105.02873,27.9576031 105.337565,28.5994424 105.366211,29.440918 L103.776367,29.440918 C103.747721,28.9646786 103.540041,28.6263031 103.15332,28.4257812 C102.895507,28.2932936 102.575034,28.2270508 102.191895,28.2270508 C101.765786,28.2270508 101.42562,28.3129874 101.171387,28.4848633 C100.917154,28.6567391 100.790039,28.8966456 100.790039,29.2045898 C100.790039,29.4874689 100.915363,29.6987298 101.166016,29.8383789 C101.327149,29.9314783 101.670896,30.0406895 102.197266,30.1660156 L103.561523,30.4936523 C104.159508,30.6368822 104.610676,30.8284493 104.915039,31.0683594 C105.387698,31.4407571 105.624023,31.9796514 105.624023,32.6850586 C105.624023,33.4083695 105.347415,34.0090308 104.794189,34.4870605 C104.240964,34.9650903 103.459478,35.2041016 102.449707,35.2041016 C101.418452,35.2041016 100.607425,34.968671 100.016602,34.4978027 C99.4257783,34.0269345 99.1303711,33.3797242 99.1303711,32.5561523 L100.709473,32.5561523 Z M112.601074,27.0830078 L112.601074,28.4848633 L110.232422,28.4848633 L110.232422,35 L108.567383,35 L108.567383,28.4848633 L106.187988,28.4848633 L106.187988,27.0830078 L112.601074,27.0830078 Z M118.81543,27.0830078 L121.194824,27.0830078 L121.194824,35 L119.65332,35 L119.65332,29.6450195 C119.65332,29.4910474 119.655111,29.2753106 119.658691,28.9978027 C119.662272,28.7202948 119.664062,28.5063484 119.664062,28.355957 L118.165527,35 L116.55957,35 L115.071777,28.355957 C115.071777,28.5063484 115.073568,28.7202948 115.077148,28.9978027 C115.080729,29.2753106 115.08252,29.4910474 115.08252,29.6450195 L115.08252,35 L113.541016,35 L113.541016,27.0830078 L115.947266,27.0830078 L117.386719,33.3081055 L118.81543,27.0830078 Z M128.585449,28.4848633 L124.395996,28.4848633 L124.395996,30.1660156 L128.241699,30.1660156 L128.241699,31.5410156 L124.395996,31.5410156 L124.395996,33.5766602 L128.778809,33.5766602 L128.778809,35 L122.779297,35 L122.779297,27.0830078 L128.585449,27.0830078 L128.585449,28.4848633 Z M130.041016,27.0830078 L131.775879,27.0830078 L134.928711,32.6098633 L134.928711,27.0830078 L136.470215,27.0830078 L136.470215,35 L134.815918,35 L131.58252,29.3764648 L131.58252,35 L130.041016,35 L130.041016,27.0830078 Z M143.76416,27.0830078 L143.76416,28.4848633 L141.395508,28.4848633 L141.395508,35 L139.730469,35 L139.730469,28.4848633 L137.351074,28.4848633 L137.351074,27.0830078 L143.76416,27.0830078 Z M149.393066,28.4580078 L149.393066,30.2036133 L151.337402,30.2036133 C151.684735,30.2036133 151.966714,30.1382656 152.18335,30.0075684 C152.399985,29.8768711 152.508301,29.6450212 152.508301,29.3120117 C152.508301,28.9431948 152.365073,28.6997076 152.078613,28.581543 C151.831542,28.4991858 151.516441,28.4580078 151.133301,28.4580078 L149.393066,28.4580078 Z M149.393066,31.5141602 L149.393066,33.625 L151.337402,33.625 C151.684735,33.625 151.955077,33.578451 152.148438,33.4853516 C152.499351,33.3134757 152.674805,32.9840519 152.674805,32.4970703 C152.674805,32.0852844 152.504722,31.8024096 152.164551,31.6484375 C151.974771,31.5624996 151.70801,31.5177409 151.364258,31.5141602 L149.393066,31.5141602 Z M153.722168,27.9262695 C153.965659,28.2628598 154.087402,28.6656878 154.087402,29.1347656 C154.087402,29.6181665 153.965659,30.0066717 153.722168,30.300293 C153.5861,30.4650073 153.385581,30.6153965 153.120605,30.7514648 C153.52523,30.8982755 153.830484,31.1310205 154.036377,31.449707 C154.24227,31.7683935 154.345215,32.1551084 154.345215,32.6098633 C154.345215,33.0789411 154.227052,33.4996726 153.990723,33.8720703 C153.840331,34.1191419 153.652345,34.3268221 153.426758,34.4951172 C153.172525,34.6884775 152.872642,34.8209632 152.5271,34.8925781 C152.181558,34.9641931 151.80648,35 151.401855,35 L147.813965,35 L147.813965,27.0830078 L151.659668,27.0830078 C152.63005,27.0973308 153.317544,27.3784152 153.722168,27.9262695 L153.722168,27.9262695 Z M157.895508,32.0083008 L159.904297,32.0083008 L158.916016,28.8930664 L157.895508,32.0083008 Z M157.997559,27.0830078 L159.866699,27.0830078 L162.67041,35 L160.876465,35 L160.366211,33.3725586 L157.449707,33.3725586 L156.901855,35 L155.172363,35 L157.997559,27.0830078 Z M163.647949,27.0830078 L165.382812,27.0830078 L168.535645,32.6098633 L168.535645,27.0830078 L170.077148,27.0830078 L170.077148,35 L168.422852,35 L165.189453,29.3764648 L165.189453,35 L163.647949,35 L163.647949,27.0830078 Z M171.645508,27.0830078 L173.272949,27.0830078 L173.272949,30.3432617 L176.329102,27.0830078 L178.466797,27.0830078 L175.222656,30.3432617 L178.633301,35 L176.506348,35 L174.0625,31.5410156 L173.272949,32.3520508 L173.272949,35 L171.645508,35 L171.645508,27.0830078 Z" id="ASIAN-INFRASTRUCTURE" fill="#860C14"></path>
                            </g>
                        </g>
                    </g>
                </g>
            </g>
        </g>
    </g>
</svg>